<svg width="33" height="33" fill="none" xmlns="http://www.w3.org/2000/svg">
    <path d="m32.633 24.75-9.25-9.25L26 12.883l-6.25-6.25-2.617 2.617L7.883 0 0 7.883l9.25 9.25-7.933 7.934v6.25h6.25l7.933-7.934 9.25 9.25 7.883-7.883Zm-21.016-9.983-6.9-6.884 3.166-3.166L10 6.833 8.017 8.817l2.35 2.35 1.983-1.984 2.417 2.417-3.15 3.167Zm6.25 6.25 3.166-3.167 2.417 2.417-1.983 1.983 2.35 2.35 1.983-1.983 2.117 2.116L24.75 27.9l-6.883-6.883Zm3.671-16.162 4.23-4.232 6.247 6.247-4.23 4.232-6.247-6.247Z" fill="#F9995D"/>
</svg>
